HIERARCHY
ROOT Hips
{
	OFFSET 51.326599 -5.197656 96.239899
	CHANNELS 6 Xposition Yposition Zposition Xrotation Yrotation Zrotation
	JOINT spine
	{
		OFFSET 0.000000 -0.467660 8.132492
		CHANNELS 3 Xrotation Yrotation Zrotation
		JOINT spine1
		{
			OFFSET 0.000000 -0.000001 10.349800
			CHANNELS 3 Xrotation Yrotation Zrotation
			JOINT spine2
			{
				OFFSET 0.000000 -0.000002 9.916992
				CHANNELS 3 Xrotation Yrotation Zrotation
				JOINT Neck
				{
					OFFSET 0.000000 -1.213904 25.461006
					CHANNELS 3 Xrotation Yrotation Zrotation
					JOINT Head
					{
						OFFSET 0.000000 -0.000001 7.692444
						CHANNELS 3 Xrotation Yrotation Zrotation
						End Site
						{
							OFFSET 0.000000 6.140627 18.619995
						}
					}
				}
				JOINT RightShoulder
				{
					OFFSET -4.175751 0.581444 10.709602
					CHANNELS 3 Xrotation Yrotation Zrotation
					JOINT RightArm
					{
						OFFSET 0.000000 -0.000002 14.046600
						CHANNELS 3 Xrotation Yrotation Zrotation
						JOINT RightArmRoll
						{
							OFFSET 0.000000 -0.000001 7.090973
							CHANNELS 3 Xrotation Yrotation Zrotation
							JOINT RightForeArm
							{
								OFFSET 0.000000 -0.000004 20.653503
								CHANNELS 3 Xrotation Yrotation Zrotation
								JOINT RightForeArmRoll
								{
									OFFSET 0.000000 -0.000001 7.957184
									CHANNELS 3 Xrotation Yrotation Zrotation
									JOINT RightHand
									{
										OFFSET 0.000000 -0.000003 15.968292
										CHANNELS 3 Xrotation Yrotation Zrotation
										End Site
										{
											OFFSET 0.000000 0.000000 0.100006
										}
									}
								}
							}
						}
					}
				}
				JOINT LeftShoulder
				{
					OFFSET 4.175751 0.581444 10.709602
					CHANNELS 3 Xrotation Yrotation Zrotation
					JOINT LeftArm
					{
						OFFSET 0.000000 -0.000002 14.046600
						CHANNELS 3 Xrotation Yrotation Zrotation
						JOINT LeftArmRoll
						{
							OFFSET 0.000000 -0.000001 7.090973
							CHANNELS 3 Xrotation Yrotation Zrotation
							JOINT LeftForeArm
							{
								OFFSET 0.000000 -0.000004 20.653503
								CHANNELS 3 Xrotation Yrotation Zrotation
								JOINT LeftForeArmRoll
								{
									OFFSET 0.000000 -0.000001 7.957184
									CHANNELS 3 Xrotation Yrotation Zrotation
									JOINT LeftHand
									{
										OFFSET 0.000000 -0.000003 15.968292
										CHANNELS 3 Xrotation Yrotation Zrotation
										End Site
										{
											OFFSET 0.000000 0.000000 0.100006
										}
									}
								}
							}
						}
					}
				}
			}
		}
	}
	JOINT RightUpLeg
	{
		OFFSET -7.208340 1.108840 -1.321823
		CHANNELS 3 Xrotation Yrotation Zrotation
		JOINT RightUpLegRoll
		{
			OFFSET 0.000000 -0.000003 18.723801
			CHANNELS 3 Xrotation Yrotation Zrotation
			JOINT RightLeg
			{
				OFFSET 0.000000 0.000004 -23.186600
				CHANNELS 3 Xrotation Yrotation Zrotation
				JOINT RightLegRoll
				{
					OFFSET 0.000000 -0.000004 23.262398
					CHANNELS 3 Xrotation Yrotation Zrotation
					JOINT RightFoot
					{
						OFFSET 0.000000 -0.000003 19.362099
						CHANNELS 3 Xrotation Yrotation Zrotation
						JOINT RightToeBase
						{
							OFFSET 0.000000 -0.000003 16.185699
							CHANNELS 3 Xrotation Yrotation Zrotation
							End Site
							{
								OFFSET 0.006859 0.903521 7.838623
							}
						}
					}
				}
			}
		}
	}
	JOINT LeftUpLeg
	{
		OFFSET 7.208340 1.108840 -1.321823
		CHANNELS 3 Xrotation Yrotation Zrotation
		JOINT LeftUpLegRoll
		{
			OFFSET 0.000000 -0.000003 18.723900
			CHANNELS 3 Xrotation Yrotation Zrotation
			JOINT LeftLeg
			{
				OFFSET 0.000000 -0.000004 23.186501
				CHANNELS 3 Xrotation Yrotation Zrotation
				JOINT LeftLegRoll
				{
					OFFSET 0.000000 -0.000004 23.477493
					CHANNELS 3 Xrotation Yrotation Zrotation
					JOINT LeftFoot
					{
						OFFSET 0.000000 -0.000003 19.147003
						CHANNELS 3 Xrotation Yrotation Zrotation
						JOINT LeftToeBase
						{
							OFFSET 0.000000 -0.000003 16.185699
							CHANNELS 3 Xrotation Yrotation Zrotation
							End Site
							{
								OFFSET -0.030746 0.903521 7.838623
							}
						}
					}
				}
			}
		}
	}
}
MOTION
Frames: 8
Frame Time: 0.041667
55.472698 -13.559815 95.800995 -3.985734 3.506617 8.165095 -0.194393 -1.188203 -1.405189 3.585974 -2.385895 -2.803052 5.230847 -2.419295 -2.774291 6.737553 -46.934072 -5.565078 10.347112 34.546253 -7.721800 -61.255951 -58.174401 -71.832649 -113.225070 -114.298503 -153.299348 0.000000 0.000002 -0.000001 138.970417 7.141446 -45.215654 -0.000008 -0.000007 -2.999990 -5.000201 -7.998870 0.000136 9.230170 20.905983 -19.559519 -97.027830 190.653666 71.975509 -0.000001 -0.000027 0.000005 -0.138153 -11.779070 0.392221 0.000003 -0.000003 3.057438 -5.000213 7.998863 -0.000134 -8.291144 -177.554811 0.476078 -179.999991 0.000005 -0.884000 172.102954 -2.060297 -0.444721 -0.000001 -0.000004 -0.006904 66.654969 6.342638 3.648908 25.456955 -7.347430 0.000000 3.500505 174.142872 -2.510111 -0.000020 -0.000004 -1.020119 -15.703814 1.761929 0.705702 0.000002 -0.000001 -0.518525 79.070102 -6.587355 -2.280514 25.881018 7.347093 -0.536024 
55.494598 -13.577619 95.794785 -3.970249 3.502493 8.046668 -0.190457 -1.189093 -1.404182 3.593817 -2.388359 -2.800950 5.238693 -2.421724 -2.772164 6.621173 -46.995093 -5.585443 10.421632 34.670812 -7.734855 -61.331212 -58.172735 -71.918012 -113.420400 -114.149345 -153.483435 0.000001 0.000002 -0.000001 139.023542 7.138752 -45.289407 -0.000005 -0.000006 -2.999990 -5.000202 -7.998861 0.000138 9.172577 20.812029 -19.506170 -97.100899 190.683118 71.979026 -0.000002 -0.000029 0.000002 -0.137392 -11.817069 0.379621 0.000003 -0.000003 3.057057 -5.000215 7.998864 -0.000134 -8.304726 -177.515291 0.520846 -179.999991 0.000005 -0.883999 172.117939 -2.114849 -0.446719 -0.000002 -0.000003 -0.005054 66.661649 6.351621 3.625385 25.456959 -7.347428 0.000000 3.534511 174.183006 -2.498807 -0.000020 -0.000004 -1.022429 -15.667008 1.774601 0.705306 0.000003 -0.000001 -0.515372 79.044277 -6.587631 -2.281541 25.912845 7.347131 -0.539902 
55.512901 -13.586818 95.793793 -3.957571 3.497429 7.928910 -0.185592 -1.189563 -1.402565 3.603559 -2.390060 -2.797605 5.248440 -2.423389 -2.768796 6.495287 -47.055441 -5.611715 10.497168 34.787472 -7.748553 -61.399303 -58.170133 -71.995515 -113.601182 -114.000604 -153.644545 0.000001 0.000002 -0.000001 139.072118 7.134773 -45.354266 -0.000006 -0.000007 -2.999991 -5.000207 -7.998868 0.000140 9.106581 20.717586 -19.441082 -97.165595 190.738428 71.970263 -0.000001 -0.000028 0.000005 -0.136385 -11.869970 0.361599 0.000002 -0.000005 3.057001 -5.000212 7.998864 -0.000134 -8.313957 -177.472808 0.569972 -179.999991 0.000006 -0.884996 172.134769 -2.173382 -0.448169 -0.000001 -0.000003 -0.003061 66.669613 6.361537 3.599177 25.456960 -7.347430 0.000000 3.572410 174.223154 -2.488208 -0.000020 -0.000004 -1.024940 -15.627900 1.787470 0.704819 0.000002 -0.000001 -0.512092 79.016314 -6.588013 -2.282701 25.946786 7.347165 -0.543028 
55.535999 -13.574319 95.860802 -3.947239 3.491596 7.811845 -0.180000 -1.189663 -1.400448 3.614753 -2.391089 -2.793251 5.259632 -2.424361 -2.764429 6.363171 -47.115092 -5.642692 10.572232 34.896167 -7.762362 -61.460296 -58.167243 -72.065080 -113.769901 -113.853086 -153.785889 0.000001 0.000002 -0.000000 139.116173 7.129537 -45.409167 -0.000008 -0.000006 -2.999989 -5.000204 -7.998863 0.000137 9.033685 20.623457 -19.366260 -97.222716 190.814804 71.952116 -0.000004 -0.000025 0.000006 -0.135169 -11.934972 0.339204 0.000004 -0.000004 3.057211 -5.000212 7.998864 -0.000134 -8.319653 -177.428302 0.622511 -179.999991 0.000005 -0.885994 172.152978 -2.235891 -0.450063 -0.000002 -0.000003 -0.000962 66.678465 6.372067 3.571243 25.456959 -7.347423 0.000007 3.613387 174.263356 -2.478143 -0.000020 -0.000004 -1.027630 -15.587190 1.800453 0.704252 0.000003 -0.000001 -0.508729 78.986971 -6.588400 -2.283841 25.982550 7.347214 -0.545337 
55.545300 -13.590920 95.847191 -3.938796 3.485137 7.695525 -0.173907 -1.189454 -1.397969 3.626973 -2.391505 -2.788164 5.271855 -2.424732 -2.759344 6.228082 -47.173743 -5.676803 10.645299 34.997008 -7.775713 -61.515143 -58.164607 -72.127583 -113.929085 -113.707405 -153.910854 0.000000 0.000004 -0.000001 139.155802 7.123820 -45.454537 -0.000008 -0.000008 -2.999999 -5.000205 -7.998869 0.000141 8.955369 20.530440 -19.283593 -97.273129 190.907353 71.925990 -0.000003 -0.000027 0.000008 -0.133776 -12.009172 0.313504 0.000003 -0.000004 3.057638 -5.000212 7.998863 -0.000134 -8.322631 -177.382813 0.677526 -179.999991 0.000005 -0.887004 172.172021 -2.301374 -0.452303 -0.000002 -0.000003 0.001202 66.687938 6.382937 3.542243 25.456955 -7.347422 0.000006 3.656636 174.303545 -2.468428 -0.000020 -0.000004 -1.030450 -15.545487 1.813488 0.703633 0.000002 -0.000001 -0.505322 78.956741 -6.588825 -2.284938 26.019937 7.347258 -0.546781 
55.563801 -13.596119 95.849991 -3.931781 3.478213 7.580001 -0.167520 -1.188975 -1.395266 3.639785 -2.391412 -2.782612 5.284665 -2.424562 -2.753783 6.093290 -47.231322 -5.712441 10.714818 35.089865 -7.787995 -61.564129 -58.162824 -72.183188 -114.080996 -113.564435 -154.022391 -0.000000 0.000003 -0.000001 139.191155 7.117622 -45.492352 -0.000009 -0.000009 -3.000002 -5.000206 -7.998865 0.000138 8.873088 20.439146 -19.194805 -97.317676 191.011240 71.891703 -0.000002 -0.000026 0.000003 -0.132244 -12.089972 0.285558 0.000002 -0.000004 3.058211 -5.000212 7.998864 -0.000133 -8.323710 -177.335330 0.733786 -179.999991 0.000005 -0.888001 172.191446 -2.366878 -0.453491 -0.000002 -0.000003 0.003397 66.697733 6.393844 3.513030 25.456953 -7.347422 0.000007 3.701350 174.343734 -2.458907 -0.000020 -0.000004 -1.033368 -15.503276 1.826493 0.702972 0.000002 -0.000001 -0.501912 78.926005 -6.589384 -2.285979 26.058729 7.347296 -0.547292 
55.582901 -13.604117 95.858482 -3.925743 3.470974 7.465318 -0.161063 -1.188285 -1.392451 3.652754 -2.390868 -2.776843 5.297645 -2.423954 -2.748026 5.962104 -47.287647 -5.748165 10.779288 35.174880 -7.798654 -61.607733 -58.162653 -72.232351 -114.228719 -113.424935 -154.124284 0.000001 0.000001 0.000000 139.222546 7.110226 -45.522309 -0.000008 -0.000007 -3.000002 -5.000204 -7.998864 0.000138 8.788329 20.350588 -19.101888 -97.357107 191.121588 71.851732 -0.000005 -0.000025 0.000009 -0.130605 -12.174571 0.256418 0.000002 -0.000003 3.058868 -5.000213 7.998863 -0.000136 -8.323714 -177.287833 0.790485 -179.999991 0.000005 -0.888999 172.210762 -2.433361 -0.455767 -0.000001 -0.000003 0.005585 66.707480 6.404504 3.484366 25.456959 -7.347421 0.000006 3.746726 174.383950 -2.449418 -0.000020 -0.000004 -1.036350 -15.461366 1.839384 0.702294 0.000004 -0.000001 -0.498537 78.895659 -6.589919 -2.286798 26.098737 7.347332 -0.546846 
55.587898 -13.632818 95.757988 -3.920213 3.463555 7.351504 -0.154745 -1.187436 -1.389657 3.665453 -2.389966 -2.771119 5.310343 -2.422978 -2.742315 5.837837 -47.342466 -5.782541 10.837134 35.251989 -7.807061 -61.646330 -58.164463 -72.275265 -114.374523 -113.289875 -154.219647 -0.000000 0.000002 0.000000 139.249963 7.103179 -45.546123 -0.000007 -0.000006 -3.000000 -5.000206 -7.998865 0.000137 8.702558 20.265376 -19.006542 -97.392296 191.233576 71.806796 -0.000005 -0.000025 0.000005 -0.128893 -12.260275 0.227149 0.000003 -0.000002 3.059569 -5.000213 7.998864 -0.000135 -8.323458 -177.241333 0.846691 -179.999991 0.000005 -0.889996 172.229435 -2.498872 -0.456883 -0.000001 -0.000003 0.007726 66.717062 6.414564 3.457085 25.456959 -7.347422 0.000007 3.791933 174.424153 -2.439789 -0.000020 -0.000005 -1.039339 -15.420160 1.852089 0.701612 0.000004 -0.000001 -0.495241 78.865968 -6.590587 -2.287287 26.139551 7.347351 -0.545335 
